<svg xmlns="http://www.w3.org/2000/svg" width="1600" height="1100" viewBox="0 0 1600 1100">
  <defs>
    <linearGradient id="bg" x1="0" y1="0" x2="1" y2="1">
      <stop offset="0" stop-color="#12B3FF" stop-opacity="0.14"/>
      <stop offset="0.55" stop-color="#19E6C0" stop-opacity="0.12"/>
      <stop offset="1" stop-color="#38F28D" stop-opacity="0.10"/>
    </linearGradient>
    <radialGradient id="g1" cx="30%" cy="20%" r="70%">
      <stop offset="0" stop-color="#12B3FF" stop-opacity="0.35"/>
      <stop offset="1" stop-color="#12B3FF" stop-opacity="0"/>
    </radialGradient>
    <radialGradient id="g2" cx="80%" cy="35%" r="70%">
      <stop offset="0" stop-color="#19E6C0" stop-opacity="0.32"/>
      <stop offset="1" stop-color="#19E6C0" stop-opacity="0"/>
    </radialGradient>
    <radialGradient id="g3" cx="55%" cy="95%" r="85%">
      <stop offset="0" stop-color="#38F28D" stop-opacity="0.22"/>
      <stop offset="1" stop-color="#38F28D" stop-opacity="0"/>
    </radialGradient>
    <filter id="blur" x="-20%" y="-20%" width="140%" height="140%">
      <feGaussianBlur stdDeviation="22"/>
    </filter>
  </defs>
  <rect width="1600" height="1100" fill="#F7FAFF"/>
  <rect width="1600" height="1100" fill="url(#bg)"/>
  <circle cx="520" cy="230" r="320" fill="url(#g1)" filter="url(#blur)"/>
  <circle cx="1230" cy="320" r="340" fill="url(#g2)" filter="url(#blur)"/>
  <circle cx="860" cy="980" r="420" fill="url(#g3)" filter="url(#blur)"/>
  <g opacity="0.80">
    <rect x="130" y="180" width="860" height="560" rx="44" fill="white" fill-opacity="0.55" stroke="#0B7CFF" stroke-opacity="0.08"/>
    <rect x="180" y="240" width="520" height="52" rx="18" fill="#FFFFFF" fill-opacity="0.65" stroke="#0B7CFF" stroke-opacity="0.06"/>
    <rect x="180" y="312" width="460" height="52" rx="18" fill="#FFFFFF" fill-opacity="0.55" stroke="#0B7CFF" stroke-opacity="0.06"/>
    <rect x="180" y="384" width="420" height="52" rx="18" fill="#FFFFFF" fill-opacity="0.45" stroke="#0B7CFF" stroke-opacity="0.06"/>
    <rect x="180" y="480" width="680" height="200" rx="28" fill="#FFFFFF" fill-opacity="0.40" stroke="#0B7CFF" stroke-opacity="0.06"/>
    <circle cx="790" cy="292" r="10" fill="#12B3FF" fill-opacity="0.75"/>
    <circle cx="820" cy="292" r="10" fill="#19E6C0" fill-opacity="0.75"/>
    <circle cx="850" cy="292" r="10" fill="#38F28D" fill-opacity="0.75"/>
  </g>
  <g transform="translate(1080,360)">
    <rect x="0" y="0" width="420" height="520" rx="44" fill="white" fill-opacity="0.62" stroke="#0B7CFF" stroke-opacity="0.08"/>
    <text x="48" y="92" font-size="44" font-family="ui-serif, Georgia, Times New Roman, serif" fill="#0C121E" fill-opacity="0.92" font-weight="800">Kabbalah</text>
    <text x="48" y="140" font-size="44" font-family="ui-serif, Georgia, Times New Roman, serif" fill="#0C121E" fill-opacity="0.92" font-weight="800">sin humo.</text>
    <rect x="48" y="190" width="260" height="46" rx="18" fill="#FFFFFF" fill-opacity="0.55" stroke="#0B7CFF" stroke-opacity="0.06"/>
    <rect x="48" y="252" width="320" height="46" rx="18" fill="#FFFFFF" fill-opacity="0.48" stroke="#0B7CFF" stroke-opacity="0.06"/>
    <rect x="48" y="314" width="300" height="46" rx="18" fill="#FFFFFF" fill-opacity="0.42" stroke="#0B7CFF" stroke-opacity="0.06"/>
    <rect x="48" y="406" width="220" height="54" rx="20" fill="#0B7CFF" fill-opacity="0.90"/>
    <rect x="276" y="406" width="92" height="54" rx="20" fill="#19E6C0" fill-opacity="0.90"/>
  </g>
</svg>