<?xml version="1.0" encoding="UTF-8"?>
<svg xmlns="http://www.w3.org/2000/svg" width="512" height="512" viewBox="0 0 512 512">
  <defs>
    <linearGradient id="ig1" x1="0" y1="0" x2="1" y2="1">
      <stop offset="0" stop-color="#F4EEFF"/>
      <stop offset="0.55" stop-color="#DCCBFF"/>
      <stop offset="1" stop-color="#BFA6FF"/>
    </linearGradient>
    <linearGradient id="ig2" x1="1" y1="0" x2="0" y2="1">
      <stop offset="0" stop-color="#BFA6FF" stop-opacity="0.95"/>
      <stop offset="1" stop-color="#8F7BFF" stop-opacity="0.85"/>
    </linearGradient>
    <filter id="softGlow" x="-30%" y="-30%" width="160%" height="160%">
      <feGaussianBlur stdDeviation="10" result="blur"/>
      <feColorMatrix in="blur" type="matrix"
        values="1 0 0 0 0
                0 1 0 0 0
                0 0 1 0 0
                0 0 0 .55 0" result="glow"/>
      <feMerge>
        <feMergeNode in="glow"/>
        <feMergeNode in="SourceGraphic"/>
      </feMerge>
    </filter>
  </defs>

  <g transform="translate(256,256)">
    <circle cx="0" cy="0" r="176" fill="none" stroke="url(#ig1)" stroke-width="5" opacity="0.85"/>
    <circle cx="0" cy="0" r="134" fill="none" stroke="url(#ig2)" stroke-width="4" opacity="0.55"/>

    <g opacity="0.9" filter="url(#softGlow)">
      <path d="M0 -140
               C34 -106 54 -74 54 0
               C54 74 34 106 0 140
               C-34 106 -54 74 -54 0
               C-54 -74 -34 -106 0 -140Z"
            fill="url(#ig1)" opacity="0.22"/>
      <path d="M-140 0
               C-106 -34 -74 -54 0 -54
               C74 -54 106 -34 140 0
               C106 34 74 54 0 54
               C-74 54 -106 34 -140 0Z"
            fill="url(#ig1)" opacity="0.18"/>
      <path d="M0 -116 L44 -36 L116 0 L44 36 L0 116 L-44 36 L-116 0 L-44 -36 Z"
            fill="none" stroke="url(#ig2)" stroke-width="5" opacity="0.78"/>
      <circle cx="0" cy="0" r="14" fill="#F9F6FF" opacity="0.95"/>
    </g>

    <text x="0" y="14" text-anchor="middle"
          font-family="Georgia, 'Times New Roman', serif"
          font-size="84" font-weight="600"
          fill="#F9F6FF"
          letter-spacing="2">PA</text>
  </g>
</svg>
